<svg width="48" height="48" viewBox="0 0 48 48" fill="none" xmlns="http://www.w3.org/2000/svg">
<path d="M24 0.00390553C17.6348 0.00390553 11.5304 2.53247 7.02949 7.03334C2.52862 11.5342 -7.15256e-07 17.6387 -7.15256e-07 24.0039C-7.15256e-07 30.3691 2.52862 36.4736 7.02949 40.9745C11.5304 45.4753 17.6348 48.0039 24 48.0039C30.3652 48.0039 36.4697 45.4753 40.9706 40.9745C45.4715 36.4736 48 30.3691 48 24.0039C48 17.6387 45.4715 11.5342 40.9706 7.03334C36.4697 2.53247 30.3652 0.00390553 24 0.00390553Z" fill="#37C8AB"/>
<path d="M48 24C48 19.7871 46.891 15.6485 44.7846 12C42.6781 8.35154 39.6485 5.32183 36 3.21539C32.3515 1.10894 28.2129 -8.53014e-06 24 -8.24928e-06C19.7871 -7.96842e-06 15.6485 1.10895 12 3.21539C8.35154 5.32183 5.32187 8.35154 3.21543 12C1.10899 15.6485 -2.03999e-06 19.7871 -7.15256e-07 24" fill="#006680"/>
<path d="M48 24.0034C48 26.7285 47.5359 29.4337 46.6275 32.0029H1.37304C0.464693 29.4337 0.000517221 26.7285 0.000480414 24.0034C0.000691778 21.278 0.4651 18.5725 1.37382 16.0031H46.6275C47.536 18.5726 48.0001 21.278 48 24.0034Z" fill="#298F96"/>
<path d="M17.7622 0.817383C14.8715 1.59193 12.1791 2.87226 9.76935 4.64695V24.0076C9.76935 26.9057 10.3554 29.4421 11.5285 31.6158C12.7015 33.7893 14.3573 35.4622 16.4964 36.6353C18.6355 37.8083 21.1377 38.3954 24.0013 38.3954C26.2439 38.3954 28.2273 38.0505 29.9524 37.3605C31.712 36.6704 33.1958 35.6863 34.4034 34.4098C35.6454 33.0987 36.5934 31.5636 37.249 29.8041C37.9045 28.0443 38.2322 26.1302 38.2322 24.0602C38.2322 21.369 37.6803 19.0227 36.5763 17.0217C35.5067 15.0206 34.0239 13.4503 32.1263 12.3117C30.2287 11.1731 28.0201 10.6042 25.5015 10.6042C24.4319 10.6042 23.4146 10.7419 22.4485 11.018C21.517 11.2939 20.6544 11.7082 19.8609 12.2602C19.1018 12.7778 18.4635 13.3991 17.946 14.1236H17.7902L17.7622 0.817383Z" fill="white"/>
<path d="M29.7606 24.243C29.714 25.3039 26.731 25.3983 25.9479 26.1155C25.1647 26.8327 24.8088 29.7958 23.7479 29.7492C22.687 29.7025 22.5925 26.7196 21.8753 25.9364C21.1581 25.1533 18.1951 24.7974 18.2417 23.7365C18.2884 22.6755 21.2713 22.5811 22.0544 21.8639C22.8376 21.1467 23.1935 18.1836 24.2544 18.2303C25.3153 18.2769 25.4098 21.2598 26.127 22.043C26.8442 22.8262 29.8073 23.1821 29.7606 24.243Z" fill="#006680"/>
</svg>
